<svg width="25" height="30" viewBox="0 0 25 30" fill="none" xmlns="http://www.w3.org/2000/svg">
<path d="M22.6562 26.25H2.34375C1.04932 26.25 0 24.9908 0 23.4375V6.5625C0 5.00918 1.04932 3.75 2.34375 3.75H22.6562C23.9507 3.75 25 5.00918 25 6.5625V23.4375C25 24.9908 23.9507 26.25 22.6562 26.25ZM5.46875 7.03125C3.95859 7.03125 2.73438 8.50031 2.73438 10.3125C2.73438 12.1247 3.95859 13.5938 5.46875 13.5938C6.97891 13.5938 8.20312 12.1247 8.20312 10.3125C8.20312 8.50031 6.97891 7.03125 5.46875 7.03125ZM3.125 22.5H21.875V15.9375L17.6018 10.8097C17.373 10.5351 17.002 10.5351 16.7731 10.8097L10.1562 18.75L7.44556 15.4972C7.21675 15.2226 6.84575 15.2226 6.61689 15.4972L3.125 19.6875V22.5Z" fill="#2C5A7C"/>
</svg>
