<svg width="76" height="68" viewBox="0 0 76 68" fill="none" xmlns="http://www.w3.org/2000/svg">
<g clip-path="url(#clip0)">
<path d="M74.9548 12.8164L51.8342 0C49.4473 3.69219 44.163 6.26875 37.9998 6.26875C31.8367 6.26875 26.5523 3.69219 24.1655 0L1.04483 12.8164C0.106704 13.3477 -0.273296 14.6227 0.189829 15.6719L6.98233 30.8789C7.45733 31.9281 8.59733 32.3531 9.53545 31.8352L16.2567 28.1562C17.5155 27.4656 18.988 28.4883 18.988 30.0687V63.75C18.988 66.1008 20.6861 68 22.788 68H53.188C55.2898 68 56.988 66.1008 56.988 63.75V30.0555C56.988 28.4883 58.4605 27.4523 59.7192 28.143L66.4405 31.8219C67.3786 32.3531 68.5186 31.9281 68.9936 30.8656L75.798 15.6719C76.273 14.6227 75.893 13.3344 74.9548 12.8164Z" fill="#16425B"/>
</g>
<defs>
<clipPath id="clip0">
<rect width="76" height="68" fill="white"/>
</clipPath>
</defs>
</svg>