<svg width="76" height="68" viewBox="0 0 76 68" fill="none" xmlns="http://www.w3.org/2000/svg">
<g clip-path="url(#clip0)">
<path d="M36.9933 19.6908L12.6667 39.8584V61.625C12.6667 62.1886 12.8891 62.7291 13.285 63.1276C13.6809 63.5261 14.2179 63.75 14.7778 63.75L29.5635 63.7115C30.1216 63.7087 30.6558 63.4836 31.0495 63.0853C31.4431 62.6871 31.6641 62.1482 31.664 61.5865V48.875C31.664 48.3114 31.8865 47.7709 32.2824 47.3724C32.6783 46.9739 33.2153 46.75 33.7752 46.75H42.2196C42.7795 46.75 43.3165 46.9739 43.7124 47.3724C44.1083 47.7709 44.3307 48.3114 44.3307 48.875V61.5772C44.3298 61.8568 44.3838 62.1338 44.4895 62.3924C44.5952 62.651 44.7506 62.8861 44.9467 63.0841C45.1428 63.2821 45.3758 63.4392 45.6324 63.5464C45.889 63.6536 46.164 63.7088 46.4418 63.7088L61.2222 63.75C61.7821 63.75 62.3191 63.5261 62.715 63.1276C63.1109 62.7291 63.3334 62.1886 63.3334 61.625V39.8438L39.012 19.6908C38.7261 19.4588 38.3699 19.3323 38.0027 19.3323C37.6354 19.3323 37.2792 19.4588 36.9933 19.6908ZM75.4195 33.3984L64.3889 24.2462V5.85039C64.3889 5.4277 64.2221 5.02232 63.9252 4.72344C63.6282 4.42455 63.2255 4.25664 62.8056 4.25664H55.4167C54.9968 4.25664 54.594 4.42455 54.2971 4.72344C54.0002 5.02232 53.8334 5.4277 53.8334 5.85039V15.4939L42.0204 5.71093C40.8867 4.77192 39.4642 4.25851 37.9961 4.25851C36.5279 4.25851 35.1054 4.77192 33.9718 5.71093L0.572663 33.3984C0.412334 33.5317 0.279687 33.6956 0.182302 33.8806C0.0849163 34.0656 0.0247007 34.2682 0.00509555 34.4766C-0.0145096 34.685 0.00688011 34.8953 0.0680424 35.0954C0.129205 35.2956 0.228941 35.4816 0.361552 35.6429L3.72614 39.7601C3.85839 39.9219 4.02105 40.056 4.20483 40.1545C4.3886 40.253 4.58987 40.314 4.79712 40.3341C5.00436 40.3543 5.21351 40.333 5.4126 40.2717C5.61168 40.2103 5.79678 40.11 5.95732 39.9766L36.9933 14.2455C37.2792 14.0135 37.6354 13.887 38.0027 13.887C38.3699 13.887 38.7261 14.0135 39.012 14.2455L70.0493 39.9766C70.2096 40.11 70.3944 40.2104 70.5932 40.272C70.792 40.3336 71.0009 40.3551 71.208 40.3354C71.4151 40.3156 71.6163 40.255 71.8001 40.157C71.9839 40.059 72.1467 39.9254 72.2792 39.7641L75.6438 35.6469C75.7762 35.4846 75.8756 35.2976 75.936 35.0967C75.9964 34.8957 76.0168 34.6846 75.996 34.4757C75.9751 34.2667 75.9135 34.064 75.8145 33.8791C75.7156 33.6942 75.5813 33.5308 75.4195 33.3984Z" fill="#16425B"/>
</g>
<defs>
<clipPath id="clip0">
<rect width="76" height="68" fill="white"/>
</clipPath>
</defs>
</svg>
