<svg width="40" height="30" viewBox="0 0 43 32" fill="none" xmlns="http://www.w3.org/2000/svg">
<path d="M29 10H3C1.34312 10 0 11.2312 0 12.75V29.25C0 30.7688 1.34312 32 3 32H29C30.6569 32 32 30.7688 32 29.25V12.75C32 11.2312 30.6569 10 29 10ZM29 12.75V15.0878C27.5986 16.1339 25.3645 17.7605 20.5883 21.1888C19.5357 21.9477 17.4508 23.771 16 23.7498C14.5495 23.7713 12.4638 21.9474 11.4117 21.1888C6.63625 17.761 4.40156 16.134 3 15.0878V12.75H29ZM3 29.25V18.6166C4.43213 19.6622 6.46306 21.1295 9.55863 23.3515C10.9247 24.3372 13.317 26.5132 16 26.4999C18.6698 26.5132 21.0318 24.3688 22.4408 23.3519C25.5363 21.13 27.5678 19.6623 29 18.6166V29.25H3Z" fill="#16425B"/>
<ellipse cx="31.5" cy="10" rx="9.5" ry="10" fill="#E97171"/>
<path d="M32.7646 15H31.1104V7.00879L28.6699 7.84277V6.44141L32.5527 5.0127H32.7646V15Z" fill="#EBF3F8"/>
</svg>
