<svg width="45" height="47" viewBox="0 0 45 47" fill="none" xmlns="http://www.w3.org/2000/svg">
<path d="M20.5 15C22.2239 15 23.8772 15.6848 25.0962 16.9038C26.3152 18.1228 27 19.7761 27 21.5C27 23.11 26.41 24.59 25.44 25.73L25.71 26H26.5L31.5 31L30 32.5L25 27.5V26.71L24.73 26.44C23.59 27.41 22.11 28 20.5 28C18.7761 28 17.1228 27.3152 15.9038 26.0962C14.6848 24.8772 14 23.2239 14 21.5C14 19.7761 14.6848 18.1228 15.9038 16.9038C17.1228 15.6848 18.7761 15 20.5 15ZM20.5 17C18 17 16 19 16 21.5C16 24 18 26 20.5 26C23 26 25 24 25 21.5C25 19 23 17 20.5 17Z" fill="#787885"/>
</svg>
