<svg width="76" height="68" viewBox="0 0 76 68" fill="none" xmlns="http://www.w3.org/2000/svg">
<path d="M42.75 17.3373V14.875H45.125C46.4372 14.875 47.5 13.9241 47.5 12.75V10.625C47.5 9.45094 46.4372 8.5 45.125 8.5H30.875C29.5628 8.5 28.5 9.45094 28.5 10.625V12.75C28.5 13.9241 29.5628 14.875 30.875 14.875H33.25V17.3373C17.143 19.4052 4.75 31.7661 4.75 46.75H71.25C71.25 31.7661 58.857 19.4052 42.75 17.3373ZM73.625 51H2.375C1.06281 51 0 51.9509 0 53.125V57.375C0 58.5491 1.06281 59.5 2.375 59.5H73.625C74.9372 59.5 76 58.5491 76 57.375V53.125C76 51.9509 74.9372 51 73.625 51Z" fill="#16425B"/>
</svg>
