<svg width="29" height="29" viewBox="0 0 29 29" fill="none" xmlns="http://www.w3.org/2000/svg">
<g clip-path="url(#clip0)">
<path d="M11.0147 -5.87292e-06C10.8528 0.0240673 10.6982 0.0834723 10.5618 0.173994C10.5618 0.173994 9.15089 1.06184 7.63396 2.02219C6.11704 2.98142 4.42946 4.0388 4.04354 4.25296C4.01973 4.26329 3.9963 4.27445 3.97327 4.28642C2.57235 5.15084 2.28123 6.56292 2.23104 7.35484C2.22769 7.39165 2.23104 7.42176 2.23104 7.4608C2.21877 7.75749 2.23104 7.94823 2.23104 7.94823V22.5185C2.23104 24.6355 4.69939 25.6538 7.04169 25.6538C7.82246 25.6538 8.60323 25.5278 9.27246 25.3047C9.71862 25.0816 10.0387 24.6355 10.0387 24.1893V12.4778C10.0387 9.91242 10.5964 8.7078 12.2695 7.70396C12.7157 7.48088 17.3936 4.25184 17.3936 4.25184C17.6167 4.02876 17.8464 3.57592 17.8464 3.2413V3.13646C17.8464 2.6903 17.6233 2.34899 17.2887 2.12592C16.9541 1.90284 16.508 1.90284 16.1733 2.12592C16.0618 2.23746 9.25796 6.81834 7.80796 7.59911C6.35796 8.49142 5.005 8.70669 4.67038 8.26053C4.56665 8.1568 4.47631 7.83892 4.46181 7.52884V7.49426V7.45857C4.46292 7.15519 4.541 6.58411 5.15892 6.20376C5.78577 5.85465 7.34173 4.86084 8.85419 3.90384C9.49331 3.49896 9.5725 3.45546 10.0733 3.13646C10.1392 3.40894 10.3054 3.6466 10.5386 3.80214C10.7718 3.95767 11.0551 4.01968 11.332 3.9758C11.6089 3.93193 11.8591 3.78539 12.0328 3.56537C12.2065 3.34535 12.291 3.06797 12.2695 2.78846V1.11538C12.2707 0.956397 12.238 0.798986 12.1734 0.653698C12.1089 0.50841 12.014 0.378602 11.8952 0.272977C11.7763 0.167353 11.6363 0.0883515 11.4845 0.0412703C11.3326 -0.00581086 11.1724 -0.0198841 11.0147 -5.87292e-06ZM19.9378 3.90384C19.7604 3.93334 19.5928 4.00528 19.4492 4.11353C19.4492 4.11353 13.8344 7.89134 12.8618 8.53938C12.85 8.55102 12.8385 8.56292 12.8272 8.57507C12.0197 9.18073 11.5412 9.90126 11.3281 10.5605C11.1775 11.0278 11.1552 11.4093 11.1541 11.7115V12.0606C11.1525 12.0952 11.1525 12.1298 11.1541 12.1644V25.6538C11.1541 27.7731 13.5946 29 15.8253 29C16.8292 29 17.7349 28.7836 18.4041 28.3375C19.7426 27.5567 26.2118 22.5174 26.2118 22.5174C26.5464 22.2943 26.7695 21.9798 26.7695 21.6451V7.14515C26.7695 6.58746 26.5531 6.25284 26.107 6.02976C25.7723 5.80669 25.2225 5.91153 24.8878 6.13461C23.1032 7.47307 18.2993 11.252 17.1839 11.9212C15.6223 12.8135 14.1512 13.0366 13.5935 12.4789C13.3704 12.2558 13.3849 12.0461 13.3849 11.7115C13.3916 11.5197 13.4128 11.3546 13.4552 11.223C13.5176 11.0289 13.6448 10.7902 14.1166 10.4221C14.1389 10.4043 14.1277 10.4054 14.1512 10.3876C14.9576 9.84884 17.4237 8.16796 19.0321 7.07488C19.1232 7.31934 19.2971 7.52412 19.5236 7.6536C19.7501 7.78309 20.0148 7.82909 20.2717 7.7836C20.5286 7.73811 20.7614 7.60401 20.9297 7.40462C21.0979 7.20524 21.1909 6.95318 21.1926 6.6923V5.01923C21.1938 4.86024 21.1611 4.70283 21.0965 4.55754C21.032 4.41226 20.9371 4.28245 20.8182 4.17682C20.6994 4.0712 20.5594 3.9922 20.4075 3.94512C20.2557 3.89804 20.0955 3.88396 19.9378 3.90384ZM24.5387 12.0606V14.2914L18.9618 18.6124V16.3816L24.5387 12.0606Z" fill="#EBF3F8"/>
</g>
<defs>
<clipPath id="clip0">
<rect width="29" height="29" fill="white"/>
</clipPath>
</defs>
</svg>
