<svg width="34" height="29" viewBox="0 0 34 29" fill="none" xmlns="http://www.w3.org/2000/svg">
<g clip-path="url(#clip0)">
<path d="M33.532 5.46582L23.1886 0C22.1208 1.57461 19.7567 2.67344 16.9995 2.67344C14.2424 2.67344 11.8783 1.57461 10.8105 0L0.467038 5.46582C0.0473503 5.69238 -0.12265 6.23613 0.0845378 6.68359L3.12329 13.1689C3.33579 13.6164 3.84579 13.7977 4.26548 13.5768L7.27235 12.0078C7.83548 11.7133 8.49423 12.1494 8.49423 12.8234V27.1875C8.49423 28.19 9.25391 29 10.1942 29H23.7942C24.7345 29 25.4942 28.19 25.4942 27.1875V12.8178C25.4942 12.1494 26.153 11.7076 26.7161 12.0021L29.723 13.5711C30.1427 13.7977 30.6527 13.6164 30.8652 13.1633L33.9092 6.68359C34.1217 6.23613 33.9517 5.68672 33.532 5.46582Z" fill="#EBF3F8"/>
</g>
<defs>
<clipPath id="clip0">
<rect width="34" height="29" fill="white"/>
</clipPath>
</defs>
</svg>
